Coordinates
version=1
nRows=8
nColumns=40
inDegrees=yes

Units are S.I. units (second, meters, Newtons, ...)
Angles are in degrees.

endheader
time	pelvis_tilt	pelvis_list	pelvis_rotation	pelvis_tx	pelvis_ty	pelvis_tz	hip_flexion_r	hip_adduction_r	hip_rotation_r	knee_angle_r	knee_angle_r_beta	ankle_angle_r	subtalar_angle_r	mtp_angle_r	hip_flexion_l	hip_adduction_l	hip_rotation_l	knee_angle_l	knee_angle_l_beta	ankle_angle_l	subtalar_angle_l	mtp_angle_l	lumbar_extension	lumbar_bending	lumbar_rotation	arm_flex_r	arm_add_r	arm_rot_r	elbow_flex_r	pro_sup_r	wrist_flex_r	wrist_dev_r	arm_flex_l	arm_add_l	arm_rot_l	elbow_flex_l	pro_sup_l	wrist_flex_l	wrist_dev_l
     26.29000000	     -2.70391149	     -4.38529339	     -0.73088069	      0.90716588	      0.91223623	      0.40926850	     21.19594930	     -8.73104907	     -6.10496084	     67.98106063	     67.98106063	     -1.37833399	    -19.40805933	     15.35635385	     21.03896528	     -1.10730239	     -0.28747205	     35.67618330	     35.67618330	     20.92938855	    -18.67478373	     12.52770289	    -11.61262942	      5.95466700	      3.19111628	     25.67252368	    -11.37505587	     -9.57829941	     34.29687233	     45.93636773	      0.00000000	      0.00000000	     18.77539942	    -13.42469256	      4.94171919	     45.01172270	     46.03526617	      0.00000000	      0.00000000
     26.30828571	     -2.58062914	     -4.31735186	     -1.32738681	      0.90673320	      0.91174696	      0.40761419	     22.62396567	     -8.80758549	     -5.88492067	     68.77879736	     68.77879736	      0.27038695	    -19.45692801	     15.42932725	     20.53515006	     -1.05501010	     -0.84835921	     35.83810571	     35.83810571	     21.45303505	    -18.69388914	     12.47386147	    -11.80911199	      6.07607990	      3.05361545	     22.57597758	    -11.77237420	     -9.84580672	     32.75718878	     45.99658754	      0.00000000	      0.00000000	     19.96774555	    -13.94759449	      4.47962897	     46.36030035	     46.11421977	      0.00000000	      0.00000000
     26.32657143	     -2.43932284	     -4.28260201	     -1.90322687	      0.90625179	      0.91151937	      0.40598195	     23.99548372	     -8.74927208	     -5.65117419	     69.31541730	     69.31541730	      2.07816954	    -19.47974791	     16.08959057	     19.94483650	     -1.01512555	     -1.36616201	     35.87611455	     35.87611455	     21.93151998	    -18.68672294	     12.43373323	    -12.07300294	      6.28183407	      2.96041784	     19.47533796	    -12.22737145	    -10.18460844	     31.10148565	     46.06829975	      0.00000000	      0.00000000	     21.15127909	    -14.47238090	      3.90671518	     47.95161177	     46.20844714	      0.00000000	      0.00000000
     26.34485714	     -2.35777044	     -4.27754084	     -2.47582799	      0.90563601	      0.91163404	      0.40456295	     25.40109888	     -8.51893879	     -5.37655733	     69.52041803	     69.52041803	      4.16764215	    -19.48131266	     18.20107999	     19.34561890	     -1.02545034	     -1.90648509	     35.75012739	     35.75012739	     22.28520351	    -18.66103614	     12.32750598	    -12.33238261	      6.49652312	      2.48174139	     16.74973504	    -12.40424992	    -11.13341305	     29.24136936	     46.20389240	      0.00000000	      0.00000000	     21.92305494	    -15.24423605	      2.87914793	     50.03036889	     46.37077778	      0.00000000	      0.00000000
     26.36314286	     -2.33443462	     -4.25154316	     -3.05373448	      0.90489676	      0.91219332	      0.40331744	     26.65752768	     -8.27497940	     -5.19249915	     69.09151029	     69.09151029	      5.47012398	    -19.48044523	     18.00477016	     18.67889299	     -1.00831569	     -2.46628112	     35.35409772	     35.35409772	     22.50916298	    -18.61949298	     12.28027384	    -12.54541864	      6.68523238	      2.40954781	     13.72925092	    -12.93013981	    -11.36004692	     27.70901479	     46.26488560	      0.00000000	      0.00000000	     23.21765669	    -15.77808846	      2.33763574	     51.16428497	     46.45186411	      0.00000000	      0.00000000
     26.38142857	     -2.36394700	     -4.29651035	     -3.61599870	      0.90403121	      0.91326094	      0.40236933	     27.78015159	     -7.83899281	     -5.04645809	     68.05340154	     68.05340154	      6.61065914	    -19.46083060	     17.86881794	     17.95907924	     -1.07964571	     -3.01394449	     34.71649243	     34.71649243	     22.59463815	    -18.54605786	     12.19902456	    -12.73786857	      6.93981401	      2.31400502	     10.79888772	    -13.42532630	    -11.64718691	     26.34120717	     46.32590855	      0.00000000	      0.00000000	     24.41261240	    -16.31597772	      1.71401624	     52.42077895	     46.53967366	      0.00000000	      0.00000000
     26.39971429	     -2.59000352	     -4.38635059	     -4.13182329	      0.90287338	      0.91455440	      0.40173295	     28.92574147	     -7.25590708	     -4.96021552	     66.40946180	     66.40946180	      7.52335335	    -19.40459516	     17.63638777	     17.43225416	     -1.21818005	     -3.51880391	     33.98482237	     33.98482237	     22.61924624	    -18.40019413	     12.24360355	    -12.69481923	      7.29561344	      1.59347697	      8.25211095	    -13.67636664	    -11.79794563	     25.39445088	     46.35789318	      0.00000000	      0.00000000	     25.40671086	    -17.45818891	      1.21504551	     52.98052581	     46.59865431	      0.00000000	      0.00000000
     26.41800000	     -2.67850584	     -4.45812288	     -4.71032691	      0.90176631	      0.91673763	      0.40147493	     29.64435159	     -6.55229148	     -4.75676181	     64.03564427	     64.03564427	      8.14865729	    -19.32171864	     17.01780932	     16.45212834	     -1.32985704	     -4.09139915	     32.67650445	     32.67650445	     22.34712021	    -18.26084511	     12.03948365	    -12.97332652	      7.47459426	      2.02353341	      5.19809336	    -14.25640894	    -12.16696823	     24.28669527	     46.41669615	      0.00000000	      0.00000000	     26.55637577	    -17.49319821	      0.42070840	     54.98564793	     46.70627667	      0.00000000	      0.00000000
